<svg xmlns="http://www.w3.org/2000/svg" viewBox="0 0 1100 1380" font-family="ui-monospace, Consolas, monospace">

  <!-- Background -->
  <rect width="1100" height="1380" fill="#0f1117"/>

  <!-- Title -->
  <text x="550" y="44" text-anchor="middle" font-size="20" font-weight="bold" fill="#f1f5f9">HIE Prototype — Frontend Architecture</text>
  <text x="550" y="66" text-anchor="middle" font-size="13" fill="#64748b">Status: 2026-03-18</text>

  <!-- ── LEGEND ── -->
  <rect x="820" y="80" width="252" height="68" rx="6" fill="#1e2433" stroke="#334155" stroke-width="1"/>
  <text x="832" y="98" font-size="11" fill="#94a3b8">LEGEND</text>
  <rect x="832" y="106" width="12" height="12" rx="2" fill="#22c55e"/>
  <text x="850" y="117" font-size="11" fill="#cbd5e1">complete</text>
  <rect x="832" y="122" width="12" height="12" rx="2" fill="#f59e0b"/>
  <text x="850" y="133" font-size="11" fill="#cbd5e1">needs work / placeholder</text>

  <!-- ══════════════════════════════════════════
       ENTRY POINT ROW
  ══════════════════════════════════════════ -->
  <text x="28" y="112" font-size="11" fill="#475569" font-weight="bold">ENTRY POINT</text>

  <!-- main.tsx -->
  <rect x="28" y="120" width="110" height="36" rx="6" fill="#1e293b" stroke="#22c55e" stroke-width="1.5"/>
  <text x="83" y="143" text-anchor="middle" font-size="12" fill="#22c55e">main.tsx</text>

  <!-- arrow main → App -->
  <line x1="138" y1="138" x2="168" y2="138" stroke="#475569" stroke-width="1.5" marker-end="url(#arr)"/>

  <!-- App.tsx -->
  <rect x="168" y="120" width="130" height="36" rx="6" fill="#1e293b" stroke="#22c55e" stroke-width="1.5"/>
  <text x="233" y="139" text-anchor="middle" font-size="12" fill="#22c55e">App.tsx</text>
  <text x="233" y="151" text-anchor="middle" font-size="9" fill="#64748b">routing only</text>

  <!-- ══════════════════════════════════════════
       ROUTES ROW
  ══════════════════════════════════════════ -->
  <text x="28" y="192" font-size="11" fill="#475569" font-weight="bold">ROUTES</text>

  <!-- vertical spine from App -->
  <line x1="233" y1="156" x2="233" y2="204" stroke="#334155" stroke-width="1.5"/>
  <!-- horizontal spine -->
  <line x1="70" y1="204" x2="840" y2="204" stroke="#334155" stroke-width="1.5"/>

  <!-- route drop lines + boxes -->
  <!-- / Overview -->
  <line x1="70"  y1="204" x2="70"  y2="228" stroke="#334155" stroke-width="1.5"/>
  <rect x="28"  y="228" width="84" height="30" rx="5" fill="#1e293b" stroke="#f59e0b" stroke-width="1.5"/>
  <text x="70"  y="243" text-anchor="middle" font-size="9"  fill="#94a3b8">/</text>
  <text x="70"  y="252" text-anchor="middle" font-size="9"  fill="#f59e0b">OverviewPage</text>

  <!-- /profile -->
  <line x1="200" y1="204" x2="200" y2="228" stroke="#334155" stroke-width="1.5"/>
  <rect x="158" y="228" width="84" height="30" rx="5" fill="#1e293b" stroke="#22c55e" stroke-width="1.5"/>
  <text x="200" y="243" text-anchor="middle" font-size="9"  fill="#94a3b8">/profile</text>
  <text x="200" y="252" text-anchor="middle" font-size="9"  fill="#22c55e">ProfilePage</text>

  <!-- /medications -->
  <line x1="340" y1="204" x2="340" y2="228" stroke="#334155" stroke-width="1.5"/>
  <rect x="292" y="228" width="96" height="30" rx="5" fill="#1e293b" stroke="#f59e0b" stroke-width="1.5"/>
  <text x="340" y="243" text-anchor="middle" font-size="9"  fill="#94a3b8">/medications</text>
  <text x="340" y="252" text-anchor="middle" font-size="9"  fill="#f59e0b">MedicationsPage</text>

  <!-- /vaccinations -->
  <line x1="490" y1="204" x2="490" y2="228" stroke="#334155" stroke-width="1.5"/>
  <rect x="438" y="228" width="104" height="30" rx="5" fill="#1e293b" stroke="#f59e0b" stroke-width="1.5"/>
  <text x="490" y="243" text-anchor="middle" font-size="9"  fill="#94a3b8">/vaccinations</text>
  <text x="490" y="252" text-anchor="middle" font-size="9"  fill="#f59e0b">VaccinationsPage</text>

  <!-- /procedures -->
  <line x1="634" y1="204" x2="634" y2="228" stroke="#334155" stroke-width="1.5"/>
  <rect x="584" y="228" width="100" height="30" rx="5" fill="#1e293b" stroke="#f59e0b" stroke-width="1.5"/>
  <text x="634" y="243" text-anchor="middle" font-size="9"  fill="#94a3b8">/procedures</text>
  <text x="634" y="252" text-anchor="middle" font-size="9"  fill="#f59e0b">ProceduresPage</text>

  <!-- /insurance -->
  <line x1="762" y1="204" x2="762" y2="228" stroke="#334155" stroke-width="1.5"/>
  <rect x="714" y="228" width="96" height="30" rx="5" fill="#1e293b" stroke="#f59e0b" stroke-width="1.5"/>
  <text x="762" y="243" text-anchor="middle" font-size="9"  fill="#94a3b8">/insurance</text>
  <text x="762" y="252" text-anchor="middle" font-size="9"  fill="#f59e0b">InsurancePage</text>

  <!-- /share -->
  <line x1="840" y1="204" x2="840" y2="228" stroke="#334155" stroke-width="1.5"/>
  <rect x="798" y="228" width="84" height="30" rx="5" fill="#1e293b" stroke="#f59e0b" stroke-width="1.5"/>
  <text x="840" y="243" text-anchor="middle" font-size="9"  fill="#94a3b8">/share</text>
  <text x="840" y="252" text-anchor="middle" font-size="9"  fill="#f59e0b">SharePage</text>

  <!-- ══════════════════════════════════════════
       COMPONENTS SECTION
  ══════════════════════════════════════════ -->
  <text x="28" y="300" font-size="11" fill="#475569" font-weight="bold">COMPONENTS  (src/components/)</text>

  <!-- ── ProfilePage column ── -->
  <line x1="200" y1="258" x2="200" y2="318" stroke="#334155" stroke-width="1.5"/>

  <!-- PersonalDetailsForm -->
  <rect x="130" y="318" width="160" height="42" rx="5" fill="#1e293b" stroke="#22c55e" stroke-width="1.5"/>
  <text x="210" y="334" text-anchor="middle" font-size="11" fill="#22c55e">PersonalDetailsForm</text>
  <text x="210" y="348" text-anchor="middle" font-size="9"  fill="#64748b">16 fields · updatePersonal</text>

  <!-- EmergencyContactForm -->
  <rect x="130" y="372" width="160" height="42" rx="5" fill="#1e293b" stroke="#22c55e" stroke-width="1.5"/>
  <text x="210" y="388" text-anchor="middle" font-size="11" fill="#22c55e">EmergencyContactForm</text>
  <text x="210" y="402" text-anchor="middle" font-size="9"  fill="#64748b">3 fields · updateEmergencyContact</text>

  <!-- AllergyList -->
  <rect x="130" y="426" width="160" height="42" rx="5" fill="#1e293b" stroke="#22c55e" stroke-width="1.5"/>
  <text x="210" y="442" text-anchor="middle" font-size="11" fill="#22c55e">AllergyList</text>
  <text x="210" y="456" text-anchor="middle" font-size="9"  fill="#64748b">add/edit/delete · severity select</text>

  <!-- connector lines for ProfilePage components -->
  <line x1="200" y1="318" x2="200" y2="360" stroke="#22c55e" stroke-width="1" stroke-dasharray="3,3"/>
  <line x1="200" y1="372" x2="200" y2="414" stroke="#22c55e" stroke-width="1" stroke-dasharray="3,3"/>

  <!-- ── OverviewPage column ── -->
  <line x1="70" y1="258" x2="70" y2="318" stroke="#334155" stroke-width="1.5"/>
  <rect x="24" y="318" width="92" height="42" rx="5" fill="#1a1f2e" stroke="#f59e0b" stroke-width="1.5" stroke-dasharray="4,3"/>
  <text x="70" y="335" text-anchor="middle" font-size="10" fill="#f59e0b">summary cards</text>
  <text x="70" y="349" text-anchor="middle" font-size="9"  fill="#64748b">read-only · to build</text>

  <!-- ── MedicationsPage column ── -->
  <line x1="340" y1="258" x2="340" y2="318" stroke="#334155" stroke-width="1.5"/>
  <rect x="294" y="318" width="92" height="42" rx="5" fill="#1a1f2e" stroke="#f59e0b" stroke-width="1.5" stroke-dasharray="4,3"/>
  <text x="340" y="335" text-anchor="middle" font-size="10" fill="#f59e0b">MedicationList</text>
  <text x="340" y="349" text-anchor="middle" font-size="9"  fill="#64748b">add/edit/delete · to build</text>

  <!-- ── VaccinationsPage column ── -->
  <line x1="490" y1="258" x2="490" y2="318" stroke="#334155" stroke-width="1.5"/>
  <rect x="444" y="318" width="92" height="42" rx="5" fill="#1a1f2e" stroke="#f59e0b" stroke-width="1.5" stroke-dasharray="4,3"/>
  <text x="490" y="335" text-anchor="middle" font-size="10" fill="#f59e0b">VaccinationList</text>
  <text x="490" y="349" text-anchor="middle" font-size="9"  fill="#64748b">add/edit/delete · to build</text>

  <!-- ── ProceduresPage column ── -->
  <line x1="634" y1="258" x2="634" y2="318" stroke="#334155" stroke-width="1.5"/>
  <rect x="588" y="318" width="92" height="42" rx="5" fill="#1a1f2e" stroke="#f59e0b" stroke-width="1.5" stroke-dasharray="4,3"/>
  <text x="634" y="335" text-anchor="middle" font-size="10" fill="#f59e0b">ProcedureList</text>
  <text x="634" y="349" text-anchor="middle" font-size="9"  fill="#64748b">add/edit/delete · to build</text>

  <!-- ── InsurancePage column ── -->
  <line x1="762" y1="258" x2="762" y2="318" stroke="#334155" stroke-width="1.5"/>
  <rect x="710" y="318" width="104" height="42" rx="5" fill="#1a1f2e" stroke="#f59e0b" stroke-width="1.5" stroke-dasharray="4,3"/>
  <text x="762" y="335" text-anchor="middle" font-size="10" fill="#f59e0b">InsurancePrimaryForm</text>
  <text x="762" y="349" text-anchor="middle" font-size="9"  fill="#64748b">6 fields · to build</text>
  <rect x="710" y="372" width="104" height="42" rx="5" fill="#1a1f2e" stroke="#f59e0b" stroke-width="1.5" stroke-dasharray="4,3"/>
  <text x="762" y="389" text-anchor="middle" font-size="10" fill="#f59e0b">InsuranceSecondaryForm</text>
  <text x="762" y="403" text-anchor="middle" font-size="9"  fill="#64748b">optional · to build</text>
  <line x1="762" y1="360" x2="762" y2="372" stroke="#f59e0b" stroke-width="1" stroke-dasharray="3,3"/>

  <!-- ── SharePage column ── -->
  <line x1="840" y1="258" x2="840" y2="318" stroke="#334155" stroke-width="1.5"/>
  <rect x="796" y="318" width="92" height="42" rx="5" fill="#1a1f2e" stroke="#f59e0b" stroke-width="1.5" stroke-dasharray="4,3"/>
  <text x="840" y="335" text-anchor="middle" font-size="10" fill="#f59e0b">ShareTokenList</text>
  <text x="840" y="349" text-anchor="middle" font-size="9"  fill="#64748b">Layer 2 · deferred</text>
  <rect x="796" y="372" width="92" height="42" rx="5" fill="#1a1f2e" stroke="#f59e0b" stroke-width="1.5" stroke-dasharray="4,3"/>
  <text x="840" y="389" text-anchor="middle" font-size="10" fill="#f59e0b">AccessLog</text>
  <text x="840" y="403" text-anchor="middle" font-size="9"  fill="#64748b">Layer 2 · deferred</text>
  <line x1="840" y1="360" x2="840" y2="372" stroke="#f59e0b" stroke-width="1" stroke-dasharray="3,3"/>

  <!-- ══════════════════════════════════════════
       STORE (horizontal bar)
  ══════════════════════════════════════════ -->
  <text x="28" y="524" font-size="11" fill="#475569" font-weight="bold">ZUSTAND STORE  (src/core/store.ts)</text>

  <!-- arrows from components down to store bar -->
  <line x1="210" y1="468" x2="210" y2="540" stroke="#334155" stroke-width="1" stroke-dasharray="3,2"/>
  <line x1="340" y1="360" x2="340" y2="540" stroke="#334155" stroke-width="1" stroke-dasharray="3,2"/>
  <line x1="490" y1="360" x2="490" y2="540" stroke="#334155" stroke-width="1" stroke-dasharray="3,2"/>
  <line x1="634" y1="360" x2="634" y2="540" stroke="#334155" stroke-width="1" stroke-dasharray="3,2"/>
  <line x1="762" y1="414" x2="762" y2="540" stroke="#334155" stroke-width="1" stroke-dasharray="3,2"/>
  <line x1="70"  y1="360" x2="70"  y2="540" stroke="#334155" stroke-width="1" stroke-dasharray="3,2"/>

  <!-- store bar -->
  <rect x="28" y="540" width="1044" height="52" rx="6" fill="#1e293b" stroke="#22c55e" stroke-width="1.5"/>
  <text x="550" y="561" text-anchor="middle" font-size="11" fill="#22c55e" font-weight="bold">usePatientStore  (Zustand)</text>
  <text x="550" y="580" text-anchor="middle" font-size="9" fill="#64748b">updatePersonal · updateEmergencyContact · add/update/removeAllergy · add/update/removeMedication · add/update/removeVaccination · add/update/removeProcedure · updateInsurance* · addShareToken · revokeShareToken · appendLog · clearAll</text>

  <!-- ══════════════════════════════════════════
       DATA LAYER
  ══════════════════════════════════════════ -->
  <text x="28" y="626" font-size="11" fill="#475569" font-weight="bold">DATA LAYER  (src/core/)  —  Layer 0 · COMPLETE · do not modify</text>

  <!-- store → storage arrow -->
  <line x1="550" y1="592" x2="550" y2="644" stroke="#334155" stroke-width="1.5" marker-end="url(#arr)"/>

  <!-- types.ts -->
  <rect x="28"  y="644" width="160" height="44" rx="5" fill="#1e293b" stroke="#22c55e" stroke-width="1.5"/>
  <text x="108" y="661" text-anchor="middle" font-size="11" fill="#22c55e">types.ts</text>
  <text x="108" y="676" text-anchor="middle" font-size="9"  fill="#64748b">interfaces only — source of truth</text>

  <!-- arrow types → schema -->
  <line x1="188" y1="666" x2="218" y2="666" stroke="#475569" stroke-width="1.5" marker-end="url(#arr)"/>

  <!-- schema.ts -->
  <rect x="218" y="644" width="160" height="44" rx="5" fill="#1e293b" stroke="#22c55e" stroke-width="1.5"/>
  <text x="298" y="661" text-anchor="middle" font-size="11" fill="#22c55e">schema.ts</text>
  <text x="298" y="676" text-anchor="middle" font-size="9"  fill="#64748b">factory functions + defaults</text>

  <!-- arrow schema → store -->
  <line x1="378" y1="666" x2="408" y2="666" stroke="#475569" stroke-width="1.5" marker-end="url(#arr)"/>

  <!-- store.ts -->
  <rect x="408" y="644" width="160" height="44" rx="5" fill="#1e293b" stroke="#22c55e" stroke-width="1.5"/>
  <text x="488" y="661" text-anchor="middle" font-size="11" fill="#22c55e">store.ts</text>
  <text x="488" y="676" text-anchor="middle" font-size="9"  fill="#64748b">Zustand · no persist middleware</text>

  <!-- arrow store → storage -->
  <line x1="568" y1="666" x2="598" y2="666" stroke="#475569" stroke-width="1.5" marker-end="url(#arr)"/>

  <!-- storage.ts -->
  <rect x="598" y="644" width="160" height="44" rx="5" fill="#1e293b" stroke="#22c55e" stroke-width="1.5"/>
  <text x="678" y="661" text-anchor="middle" font-size="11" fill="#22c55e">storage.ts</text>
  <text x="678" y="676" text-anchor="middle" font-size="9"  fill="#64748b">only file touching localStorage</text>

  <!-- arrow storage → localStorage -->
  <line x1="758" y1="666" x2="788" y2="666" stroke="#475569" stroke-width="1.5" marker-end="url(#arr)"/>

  <!-- localStorage -->
  <rect x="788" y="644" width="140" height="44" rx="5" fill="#1e293b" stroke="#475569" stroke-width="1.5"/>
  <text x="858" y="661" text-anchor="middle" font-size="11" fill="#94a3b8">localStorage</text>
  <text x="858" y="676" text-anchor="middle" font-size="9"  fill="#64748b">prototype storage</text>

  <!-- ══════════════════════════════════════════
       TESTS SECTION
  ══════════════════════════════════════════ -->
  <text x="28" y="730" font-size="11" fill="#475569" font-weight="bold">TESTS</text>

  <!-- test rows -->
  <!-- schema.test.ts -->
  <rect x="28" y="740" width="490" height="34" rx="5" fill="#1e293b" stroke="#22c55e" stroke-width="1.5"/>
  <text x="44"  y="753" font-size="10" fill="#64748b">✅</text>
  <text x="62"  y="753" font-size="10" fill="#22c55e">schema.test.ts</text>
  <text x="62"  y="766" font-size="9"  fill="#64748b">unit — factory functions + storage adapter</text>

  <!-- store.test.ts -->
  <rect x="28" y="782" width="490" height="34" rx="5" fill="#1e293b" stroke="#22c55e" stroke-width="1.5"/>
  <text x="44"  y="795" font-size="10" fill="#64748b">✅</text>
  <text x="62"  y="795" font-size="10" fill="#22c55e">store.test.ts</text>
  <text x="62"  y="808" font-size="9"  fill="#64748b">unit — all Zustand store actions</text>

  <!-- integration.test.ts -->
  <rect x="28" y="824" width="490" height="34" rx="5" fill="#1e293b" stroke="#22c55e" stroke-width="1.5"/>
  <text x="44"  y="837" font-size="10" fill="#64748b">✅</text>
  <text x="62"  y="837" font-size="10" fill="#22c55e">integration.test.ts</text>
  <text x="62"  y="850" font-size="9"  fill="#64748b">cross-layer — store → storage → simulated reload</text>

  <!-- pages.test.ts -->
  <rect x="28" y="866" width="490" height="34" rx="5" fill="#1e293b" stroke="#22c55e" stroke-width="1.5"/>
  <text x="44"  y="879" font-size="10" fill="#64748b">✅</text>
  <text x="62"  y="879" font-size="10" fill="#22c55e">pages.test.ts</text>
  <text x="62"  y="892" font-size="9"  fill="#64748b">smoke — all page modules export a default function</text>

  <!-- ProfilePage.test.tsx -->
  <rect x="28" y="908" width="490" height="34" rx="5" fill="#1e293b" stroke="#22c55e" stroke-width="1.5"/>
  <text x="44"  y="921" font-size="10" fill="#64748b">✅</text>
  <text x="62"  y="921" font-size="10" fill="#22c55e">ProfilePage.test.tsx</text>
  <text x="62"  y="934" font-size="9"  fill="#64748b">component — PersonalDetailsForm, EmergencyContactForm, AllergyList</text>

  <!-- needs tests -->
  <rect x="28" y="950" width="490" height="34" rx="5" fill="#1a1f2e" stroke="#f59e0b" stroke-width="1.5" stroke-dasharray="4,3"/>
  <text x="44"  y="963" font-size="10" fill="#f59e0b">⚠️</text>
  <text x="62"  y="963" font-size="10" fill="#f59e0b">MedicationList / VaccinationList / ProcedureList / InsuranceForms</text>
  <text x="62"  y="976" font-size="9"  fill="#64748b">component tests needed when each component is built</text>

  <!-- ══════════════════════════════════════════
       BUILD ORDER
  ══════════════════════════════════════════ -->
  <text x="28" y="1022" font-size="11" fill="#475569" font-weight="bold">RECOMMENDED BUILD ORDER</text>

  <rect x="28" y="1032" width="1044" height="36" rx="5" fill="#1e293b" stroke="#3b82f6" stroke-width="1.5"/>
  <text x="44"  y="1048" font-size="11" fill="#3b82f6" font-weight="bold">1</text>
  <text x="62"  y="1048" font-size="11" fill="#cbd5e1">MedicationList.tsx  →  wire into MedicationsPage  →  add tests</text>
  <text x="62"  y="1061" font-size="9"  fill="#64748b">closest pattern to AllergyList · add/edit/delete + status select + source field</text>

  <rect x="28" y="1076" width="1044" height="36" rx="5" fill="#1e293b" stroke="#3b82f6" stroke-width="1.5"/>
  <text x="44"  y="1092" font-size="11" fill="#3b82f6" font-weight="bold">2</text>
  <text x="62"  y="1092" font-size="11" fill="#cbd5e1">VaccinationList.tsx  →  wire into VaccinationsPage  →  add tests</text>
  <text x="62"  y="1105" font-size="9"  fill="#64748b">same pattern · vaccine name, date, lot, site, source</text>

  <rect x="28" y="1120" width="1044" height="36" rx="5" fill="#1e293b" stroke="#3b82f6" stroke-width="1.5"/>
  <text x="44"  y="1136" font-size="11" fill="#3b82f6" font-weight="bold">3</text>
  <text x="62"  y="1136" font-size="11" fill="#cbd5e1">ProcedureList.tsx  →  wire into ProceduresPage  →  add tests</text>
  <text x="62"  y="1149" font-size="9"  fill="#64748b">same pattern · category select + notes textarea</text>

  <rect x="28" y="1164" width="1044" height="36" rx="5" fill="#1e293b" stroke="#3b82f6" stroke-width="1.5"/>
  <text x="44"  y="1180" font-size="11" fill="#3b82f6" font-weight="bold">4</text>
  <text x="62"  y="1180" font-size="11" fill="#cbd5e1">InsurancePrimaryForm + InsuranceSecondaryForm  →  wire into InsurancePage  →  add tests</text>
  <text x="62"  y="1193" font-size="9"  fill="#64748b">form pattern like PersonalDetailsForm · secondary is optional/toggleable</text>

  <rect x="28" y="1208" width="1044" height="36" rx="5" fill="#1e293b" stroke="#3b82f6" stroke-width="1.5"/>
  <text x="44"  y="1224" font-size="11" fill="#3b82f6" font-weight="bold">5</text>
  <text x="62"  y="1224" font-size="11" fill="#cbd5e1">OverviewPage  —  read-only summary cards for all sections</text>
  <text x="62"  y="1237" font-size="9"  fill="#64748b">build last, once all data sections exist · no store writes</text>

  <rect x="28" y="1252" width="1044" height="36" rx="5" fill="#1a1f2e" stroke="#64748b" stroke-width="1.5" stroke-dasharray="4,3"/>
  <text x="44"  y="1268" font-size="11" fill="#64748b" font-weight="bold">6</text>
  <text x="62"  y="1268" font-size="11" fill="#64748b">SharePage  —  ShareTokenList + AccessLog</text>
  <text x="62"  y="1281" font-size="9"  fill="#475569">Layer 2 · deferred · requires QR / link / clipboard / print sharing flow</text>

  <!-- footer -->
  <text x="550" y="1358" text-anchor="middle" font-size="10" fill="#334155">src/core/ — Layer 0 COMPLETE — do not modify types.ts, schema.ts, storage.ts, or store.ts without discussion</text>

  <!-- arrowhead marker -->
  <defs>
    <marker id="arr" markerWidth="8" markerHeight="8" refX="6" refY="3" orient="auto">
      <path d="M0,0 L0,6 L8,3 z" fill="#475569"/>
    </marker>
  </defs>

</svg>
